/* XPM */
static char * config_xpm[] = {
"24 24 254 2",
"  	c None",
". 	c #C7E1F7",
"+ 	c #BDE0F9",
"@ 	c #BAE0FD",
"# 	c #B9DEFD",
"$ 	c #B9D8F4",
"% 	c #DCEDF9",
"& 	c #BAE0FB",
"* 	c #BBE1FD",
"= 	c #BADFFD",
"- 	c #B1D5F6",
"; 	c #D6E5F8",
"> 	c #CCE6F8",
", 	c #BCE3FB",
"' 	c #B6DEF5",
") 	c #D0E9F7",
"! 	c #DDEFFA",
"~ 	c #BEE2F7",
"{ 	c #BDE4FD",
"] 	c #BCE2FD",
"^ 	c #BBE0FD",
"/ 	c #B7DCFB",
"( 	c #B8D8F4",
"_ 	c #DAEAF8",
": 	c #C9E0F8",
"< 	c #AFD1F9",
"[ 	c #AECFF9",
"} 	c #C5D9F6",
"| 	c #E0F0FB",
"1 	c #BCE3FC",
"2 	c #BEE5FD",
"3 	c #BFE7FD",
"4 	c #BEE8FC",
"5 	c #BFE7FC",
"6 	c #BEE5FC",
"7 	c #ADD2E8",
"8 	c #A6C9E0",
"9 	c #A7C8E1",
"0 	c #A9CCE7",
"a 	c #B7DAFB",
"b 	c #B5D8FB",
"c 	c #B5D8FD",
"d 	c #B4D6FE",
"e 	c #B3D4FE",
"f 	c #ACCDF9",
"g 	c #E2ECFA",
"h 	c #BDE2FB",
"i 	c #C0E9FD",
"j 	c #ACCFE2",
"k 	c #98B9C8",
"l 	c #B2D7EC",
"m 	c #B2D9EF",
"n 	c #B1D6EF",
"o 	c #ADD2EC",
"p 	c #AACDE9",
"q 	c #ACCEEF",
"r 	c #B6D8FD",
"s 	c #AFCEF6",
"t 	c #D6EDFC",
"u 	c #BFE6FD",
"v 	c #A1C3D7",
"w 	c #9FC1D4",
"x 	c #B7DEF3",
"y 	c #B8DEF5",
"z 	c #B6DBF4",
"A 	c #B2D7F1",
"B 	c #AFD3EF",
"C 	c #ABD0EC",
"D 	c #A7C9E7",
"E 	c #A9CBED",
"F 	c #B1D2FC",
"G 	c #DEEFFB",
"H 	c #BCE2FC",
"I 	c #ABCEE5",
"J 	c #8FADC1",
"K 	c #B3D9F0",
"L 	c #B7DDF4",
"M 	c #B7DDF5",
"N 	c #B4DAF3",
"O 	c #B2D6F1",
"P 	c #ABCFEC",
"Q 	c #A7CAE9",
"R 	c #A3C5E5",
"S 	c #ABCDF3",
"T 	c #AFCFFA",
"U 	c #BCDEF8",
"V 	c #8BA8BD",
"W 	c #ABCFE8",
"X 	c #B2D8F1",
"Y 	c #B4D9F3",
"Z 	c #B5DEF5",
"` 	c #B4DFF6",
" .	c #ADD6EE",
"..	c #A8CEE7",
"+.	c #AACDEC",
"@.	c #A7C8E9",
"#.	c #A2C4E5",
"$.	c #A0C1E5",
"%.	c #B2D3FE",
"&.	c #B2CEF4",
"*.	c #B3D6F6",
"=.	c #B5DAFA",
"-.	c #B4D8F4",
";.	c #839FB5",
">.	c #ABCFEA",
",.	c #AFD4EF",
"'.	c #B0D6EE",
").	c #B1D7F7",
"!.	c #B3D5FD",
"~.	c #B4D7FB",
"{.	c #ACD0ED",
"].	c #9DBFDB",
"^.	c #A5C7E8",
"/.	c #A2C3E5",
"(.	c #9EBFE2",
"_.	c #ADCEF8",
":.	c #B0CFFD",
"<.	c #A8C7F7",
"[.	c #AAC6F3",
"}.	c #C3DEF9",
"|.	c #B7DBFD",
"1.	c #B8DCFD",
"2.	c #B9DDFD",
"3.	c #A8CBE7",
"4.	c #88A5BD",
"5.	c #AACDEA",
"6.	c #ACD0EC",
"7.	c #A9CFE8",
"8.	c #B3D4FD",
"9.	c #F7FBFF",
"0.	c #F8FCFF",
"a.	c #B8DDFC",
"b.	c #8BAAC3",
"c.	c #A3C5E7",
"d.	c #A0C0E4",
"e.	c #9CBCE0",
"f.	c #A9C8F3",
"g.	c #B0D0FE",
"h.	c #AFCEFE",
"i.	c #AECCFE",
"j.	c #C1D4F6",
"k.	c #C2DDFA",
"l.	c #B6D9FD",
"m.	c #B7DAFD",
"n.	c #B8DBFD",
"o.	c #A9CAE9",
"p.	c #86A2BB",
"q.	c #A6C9E7",
"r.	c #A8CCEA",
"s.	c #A2C5DF",
"t.	c #B1D4FB",
"u.	c #E1F0FE",
"v.	c #E7F2FE",
"w.	c #B8DEF9",
"x.	c #7E9AB2",
"y.	c #9DBFE1",
"z.	c #9EBEE2",
"A.	c #9ABADF",
"B.	c #A9C7F3",
"C.	c #B0CFFE",
"D.	c #AECDFE",
"E.	c #ADCBFE",
"F.	c #BFDCFB",
"G.	c #B5D7FB",
"H.	c #B2D5F7",
"I.	c #7E98B2",
"J.	c #A2C4E4",
"K.	c #A5C7E7",
"L.	c #A2C2E1",
"M.	c #9CBEDA",
"N.	c #B0D3F5",
"O.	c #B3D6F5",
"P.	c #96B5CF",
"Q.	c #7A93AE",
"R.	c #9DBDE2",
"S.	c #9BBBE0",
"T.	c #98B7DD",
"U.	c #ACCBF9",
"V.	c #AECDFD",
"W.	c #ADCAFB",
"X.	c #BBD1F9",
"Y.	c #BEDBFA",
"Z.	c #88A3BF",
"`.	c #9CBCDE",
" +	c #A0C2E3",
".+	c #95B4D2",
"++	c #839FB9",
"@+	c #7C98B1",
"#+	c #7D97B4",
"$+	c #97B6DA",
"%+	c #99B8DE",
"&+	c #9BB9E2",
"*+	c #BBD3F7",
"=+	c #E0ECFC",
"-+	c #ABCCF0",
";+	c #839DBC",
">+	c #9EBEE3",
",+	c #9DBDE1",
"'+	c #9BBBDE",
")+	c #9BBCE0",
"!+	c #98B7DE",
"~+	c #96B4DC",
"{+	c #A9C8F7",
"]+	c #ABCAFB",
"^+	c #CADFF9",
"/+	c #B3D5FE",
"(+	c #A0BFE4",
"_+	c #8CA8CA",
":+	c #98B8DD",
"<+	c #9AB9DE",
"[+	c #99B9DE",
"}+	c #98B8DE",
"|+	c #97B7DD",
"1+	c #96B5DC",
"2+	c #95B3DC",
"3+	c #A4C3F0",
"4+	c #AAC9FB",
"5+	c #CADBF6",
"6+	c #B2D2FE",
"7+	c #AAC9F2",
"8+	c #8EAACE",
"9+	c #93B1D7",
"0+	c #94B2D9",
"a+	c #93B2D9",
"b+	c #93B1DA",
"c+	c #9CB9E3",
"d+	c #AAC8F7",
"e+	c #ADCAFE",
"f+	c #A4C0F3",
"g+	c #AFCFFD",
"h+	c #B1D0FE",
"i+	c #B1D1FE",
"j+	c #B0D0FD",
"k+	c #A7C5F2",
"l+	c #A7C5F1",
"m+	c #AFCDFE",
"n+	c #ADCBFD",
"o+	c #ACCAFE",
"p+	c #ACC8FE",
"q+	c #A7C3FA",
"r+	c #ADCCFC",
"s+	c #B0CDF9",
"t+	c #BCD4FA",
"u+	c #BBD2F8",
"v+	c #ECF1FD",
"w+	c #ACC8FB",
"x+	c #A8C4FB",
"y+	c #ADCAFC",
"z+	c #A6C4F7",
"A+	c #B3CDFA",
"B+	c #ACC9FE",
"C+	c #B4CBF5",
"D+	c #C8DAFA",
"E+	c #C8D9FA",
"                                                ",
"                      . .                       ",
"                    + @ # $                     ",
"          %         & * = -         ;           ",
"        > , ' ) ! ~ { ] ^ / ( _ : < [ }         ",
"      | 1 2 3 4 5 6 7 8 9 0 a b c d e f g       ",
"        h 2 3 i j k l m n o p q r d e s         ",
"        t 2 u v w x y z A B C D E d F           ",
"        G H I J K L M N O B P Q R S T           ",
"        U ] V W X Y Z `  ...+.@.#.$.%.&.        ",
"    *.=.= -.;.>.,.'.).!.~.{.].^./.(._.:.<.[.    ",
"  }.|.1.2.3.4.5.6.7.8.9.0.a.b.c.d.e.f.g.h.i.j.  ",
"  k.l.m.n.o.p.q.r.s.t.u.v.w.x.y.z.A.B.C.D.E.j.  ",
"    F.G.l.H.I.J.K.L.M.N.O.P.Q.R.S.T.U.V.W.X.    ",
"        Y.r Z.`. +/..+++@+#+$+S.%+&+h.*+        ",
"        =+!.-+;+e.(.>+,+'+)+A.!+~+{+]+          ",
"        ^+e /+(+_+:+<+[+}+|+1+2+3+D.4+5+        ",
"        T 6+%.%.7+8+9+0+a+b+c+d+D.E.e+f+        ",
"        g+h+i+j+j+h+g.k+l+h.m+n+E.o+p+q+        ",
"          r+s+    t+h.m+D.n+u+v+  w+x+          ",
"                    y+i.E.z+                    ",
"                    A+o+B+C+                    ",
"                      D+E+                      ",
"                                                "};
