/* XPM */
static char * config2_xpm[] = {
"24 24 294 2",
"  	c None",
". 	c #E0EFFA",
"+ 	c #C7E1F7",
"@ 	c #E1EEFA",
"# 	c #FFF27B",
"$ 	c #EEE293",
"% 	c #F8F2C2",
"& 	c #BDE0F9",
"* 	c #BAE0FD",
"= 	c #B9DEFD",
"- 	c #B9D8F4",
"; 	c #FFED3E",
"> 	c #FFF35A",
", 	c #B4AA7A",
"' 	c #7E7A67",
") 	c #F7EDBE",
"! 	c #DCEDF9",
"~ 	c #BAE0FB",
"{ 	c #BBE1FD",
"] 	c #BADFFD",
"^ 	c #B1D5F6",
"/ 	c #FDEB37",
"( 	c #F7F068",
"_ 	c #FFD212",
": 	c #FFDD61",
"< 	c #AA9E6F",
"[ 	c #EBD891",
"} 	c #CCE6F8",
"| 	c #BCE3FB",
"1 	c #B6DEF5",
"2 	c #D0E9F7",
"3 	c #DDEFFA",
"4 	c #BEE2F7",
"5 	c #BDE4FD",
"6 	c #BCE2FD",
"7 	c #BBE0FD",
"8 	c #B7DCFB",
"9 	c #B8D8F4",
"0 	c #DDE9E4",
"a 	c #F5E62F",
"b 	c #F1EC68",
"c 	c #FECF0E",
"d 	c #FFC700",
"e 	c #F7BE08",
"f 	c #DDB63E",
"g 	c #F1D787",
"h 	c #E0F0FB",
"i 	c #BCE3FC",
"j 	c #BEE5FD",
"k 	c #BFE7FD",
"l 	c #BEE8FC",
"m 	c #BFE7FC",
"n 	c #BEE5FC",
"o 	c #ADD2E8",
"p 	c #A6C9E0",
"q 	c #A7C8E1",
"r 	c #A9CCE7",
"s 	c #BEDAE3",
"t 	c #F3E529",
"u 	c #F1EC5F",
"v 	c #FECF11",
"w 	c #FFC600",
"x 	c #F2BA09",
"y 	c #CFA625",
"z 	c #EAC860",
"A 	c #BDE2FB",
"B 	c #C0E9FD",
"C 	c #ACCFE2",
"D 	c #98B9C8",
"E 	c #B2D7EC",
"F 	c #B2D9EF",
"G 	c #B1D6EF",
"H 	c #B7D3D0",
"I 	c #F3E321",
"J 	c #EFE959",
"K 	c #FECD0B",
"L 	c #FFC500",
"M 	c #F5BC08",
"N 	c #C8A226",
"O 	c #E9C860",
"P 	c #D6EDFC",
"Q 	c #BFE6FD",
"R 	c #A1C3D7",
"S 	c #9FC1D4",
"T 	c #B7DEF3",
"U 	c #B8DEF5",
"V 	c #B6DBF4",
"W 	c #BCD8D2",
"X 	c #F6E51C",
"Y 	c #EFEA54",
"Z 	c #FECB06",
"` 	c #F5BB08",
" .	c #C9A428",
"..	c #DCBF5E",
"+.	c #DEEFFB",
"@.	c #BCE2FC",
"#.	c #ABCEE5",
"$.	c #8FADC1",
"%.	c #B3D9F0",
"&.	c #B7DDF4",
"*.	c #B7DDF5",
"=.	c #BFDACE",
"-.	c #F7E51B",
";.	c #EFE84A",
">.	c #FECB0B",
",.	c #FFC400",
"'.	c #F7BB08",
").	c #CCB65E",
"!.	c #BCDEF8",
"~.	c #8BA8BD",
"{.	c #ABCFE8",
"].	c #B2D8F1",
"^.	c #B4D9F3",
"/.	c #C3DDC7",
"(.	c #F8E617",
"_.	c #EDE946",
":.	c #FEC908",
"<.	c #FFC300",
"[.	c #F7BA08",
"}.	c #C6B156",
"|.	c #B3D3FB",
"1.	c #B2CEF4",
"2.	c #DAEBF9",
"3.	c #B3D6F6",
"4.	c #B5DAFA",
"5.	c #B4D8F4",
"6.	c #839FB5",
"7.	c #ABCFEA",
"8.	c #AFD4EF",
"9.	c #B3D7EC",
"0.	c #F9E93D",
"a.	c #EFE742",
"b.	c #FEC705",
"c.	c #FFC200",
"d.	c #F8B908",
"e.	c #C8A428",
"f.	c #C7B256",
"g.	c #9FBFDF",
"h.	c #ADCEF8",
"i.	c #B0CFFD",
"j.	c #A8C7F7",
"k.	c #AAC6F3",
"l.	c #D7E4F8",
"m.	c #C3DEF9",
"n.	c #B7DBFD",
"o.	c #B8DCFD",
"p.	c #B9DDFD",
"q.	c #A8CBE7",
"r.	c #88A5BD",
"s.	c #AACDEA",
"t.	c #ACD0EC",
"u.	c #C4DCDA",
"v.	c #EDE652",
"w.	c #FFC704",
"x.	c #FFC100",
"y.	c #F9BA09",
"z.	c #C49F22",
"A.	c #C7B257",
"B.	c #A1C0E1",
"C.	c #9CBCE0",
"D.	c #A9C8F3",
"E.	c #B0D0FE",
"F.	c #AFCEFE",
"G.	c #AECCFE",
"H.	c #C1D4F6",
"I.	c #C2DDFA",
"J.	c #B6D9FD",
"K.	c #B7DAFD",
"L.	c #B8DBFD",
"M.	c #A9CAE9",
"N.	c #86A2BB",
"O.	c #A6C9E7",
"P.	c #A8CCEA",
"Q.	c #E2E7BF",
"R.	c #FFF07B",
"S.	c #FFC816",
"T.	c #FBBB09",
"U.	c #CDA92D",
"V.	c #C0AB55",
"W.	c #9EBFDE",
"X.	c #9EBEE2",
"Y.	c #9ABADF",
"Z.	c #A9C7F3",
"`.	c #B0CFFE",
" +	c #AECDFE",
".+	c #ADCBFE",
"++	c #DFECFC",
"@+	c #BFDCFB",
"#+	c #B5D7FB",
"$+	c #B2D5F7",
"%+	c #7E98B2",
"&+	c #A2C4E4",
"*+	c #A2C3E2",
"=+	c #F2EB98",
"-+	c #E9DA7D",
";+	c #CCB653",
">+	c #CABA72",
",+	c #8097AF",
"'+	c #9DBDE2",
")+	c #9BBBE0",
"!+	c #98B7DD",
"~+	c #ACCBF9",
"{+	c #AECDFD",
"]+	c #ADCAFB",
"^+	c #BBD1F9",
"/+	c #E6EEFB",
"(+	c #BEDBFA",
"_+	c #B6D8FD",
":+	c #88A3BF",
"<+	c #9CBCDE",
"[+	c #859DB3",
"}+	c #C2B973",
"|+	c #D0CD8A",
"1+	c #B7BE9E",
"2+	c #92A6AA",
"3+	c #819AB6",
"4+	c #97B6DA",
"5+	c #99B8DE",
"6+	c #9BB9E2",
"7+	c #BBD3F7",
"8+	c #E0ECFC",
"9+	c #B3D5FD",
"0+	c #ABCCF0",
"a+	c #839DBC",
"b+	c #849BB4",
"c+	c #8BA4BF",
"d+	c #A3C2E5",
"e+	c #9DBDE1",
"f+	c #9BBBDE",
"g+	c #9BBCE0",
"h+	c #98B7DE",
"i+	c #96B4DC",
"j+	c #A9C8F7",
"k+	c #ABCAFB",
"l+	c #CADFF9",
"m+	c #B3D4FE",
"n+	c #B3D5FE",
"o+	c #A0BFE4",
"p+	c #8CA8CA",
"q+	c #98B8DD",
"r+	c #9AB9DE",
"s+	c #99B9DE",
"t+	c #98B8DE",
"u+	c #97B7DD",
"v+	c #96B5DC",
"w+	c #95B3DC",
"x+	c #A4C3F0",
"y+	c #AAC9FB",
"z+	c #CADBF6",
"A+	c #AFCFFA",
"B+	c #B2D2FE",
"C+	c #B2D3FE",
"D+	c #AAC9F2",
"E+	c #8EAACE",
"F+	c #93B1D7",
"G+	c #94B2D9",
"H+	c #93B2D9",
"I+	c #93B1DA",
"J+	c #9CB9E3",
"K+	c #AAC8F7",
"L+	c #ADCAFE",
"M+	c #A4C0F3",
"N+	c #DCE9FC",
"O+	c #AFCFFD",
"P+	c #B1D0FE",
"Q+	c #B1D1FE",
"R+	c #B0D0FD",
"S+	c #A7C5F2",
"T+	c #A7C5F1",
"U+	c #AFCDFE",
"V+	c #ADCBFD",
"W+	c #ACCAFE",
"X+	c #ACC8FE",
"Y+	c #A7C3FA",
"Z+	c #CFE1FC",
"`+	c #ADCCFC",
" @	c #B0CDF9",
".@	c #BCD4FA",
"+@	c #BBD2F8",
"@@	c #ECF1FD",
"#@	c #D4E2FC",
"$@	c #ACC8FB",
"%@	c #A8C4FB",
"&@	c #D7E3FA",
"*@	c #E6EFFD",
"=@	c #ADCAFC",
"-@	c #A6C4F7",
";@	c #EAF0FD",
">@	c #B3CDFA",
",@	c #ACC9FE",
"'@	c #B4CBF5",
")@	c #DDE8FD",
"!@	c #C8DAFA",
"~@	c #C8D9FA",
"                                                ",
"                    . + + @           # $ %     ",
"                    & * = -         ; > , ' )   ",
"          !         ~ { ] ^       / ( _ : < [   ",
"        } | 1 2 3 4 5 6 7 8 9 0 a b c d e f g   ",
"      h i j k l m n o p q r s t u v w x y z     ",
"        A j k B C D E F G H I J K L M N O       ",
"        P j Q R S T U V W X Y Z L `  ...        ",
"        +.@.#.$.%.&.*.=.-.;.>.,.'. .).          ",
"        !.6 ~.{.].^./.(._.:.<.[.N }.|.1.        ",
"  2.3.4.] 5.6.7.8.9.0.a.b.c.d.e.f.g.h.i.j.k.l.  ",
"  m.n.o.p.q.r.s.t.u.v.w.x.y.z.A.B.C.D.E.F.G.H.  ",
"  I.J.K.L.M.N.O.P.Q.R.S.T.U.V.W.X.Y.Z.`. +.+H.  ",
"  ++@+#+J.$+%+&+*+=+R.-+;+>+,+'+)+!+~+{+]+^+/+  ",
"        (+_+:+<+[+}+|+1+2+3+4+)+5+6+F.7+        ",
"        8+9+0+a+b+c+d+e+f+g+Y.h+i+j+k+          ",
"        l+m+n+o+p+q+r+s+t+u+v+w+x+ +y+z+        ",
"        A+B+C+C+D+E+F+G+H+I+J+K+ +.+L+M+        ",
"      N+O+P+Q+R+R+P+E.S+T+F.U+V+.+W+X+Y+/+      ",
"        Z+`+ @    .@F.U+ +V++@@@#@$@%@&@        ",
"          *@        =@G..+-@        ;@          ",
"                    >@W+,@'@                    ",
"                    )@!@~@                      ",
"                                                "};
