/* XPM */
static char * help2_xpm[] = {
"24 24 276 2",
"  	c None",
". 	c #D6E5EA",
"+ 	c #BFD7DE",
"@ 	c #B4D2D1",
"# 	c #DFCB56",
"$ 	c #DFD07A",
"% 	c #E3DBA6",
"& 	c #AEC3B7",
"* 	c #98C0CD",
"= 	c #ABD1DE",
"- 	c #B8DCE6",
"; 	c #BDDEDC",
"> 	c #FFEF4D",
", 	c #FFEA45",
"' 	c #FFDE31",
") 	c #F9C718",
"! 	c #DDBF54",
"~ 	c #EBF2F5",
"{ 	c #EEE6BF",
"] 	c #D1D0AC",
"^ 	c #95BCCB",
"/ 	c #BBDCE9",
"( 	c #CCE8F3",
"_ 	c #D6F1F9",
": 	c #DAF4FB",
"< 	c #DEF5F3",
"[ 	c #FFF983",
"} 	c #FFF880",
"| 	c #FFF675",
"1 	c #FFF060",
"2 	c #FFE23F",
"3 	c #F7BF12",
"4 	c #E3CC7D",
"5 	c #E3DDB5",
"6 	c #EAF1F2",
"7 	c #DDCF8D",
"8 	c #8FACB1",
"9 	c #A5C8D9",
"0 	c #C4E2F1",
"a 	c #CFECF9",
"b 	c #D4F0FB",
"c 	c #D4F1FA",
"d 	c #D3F1FA",
"e 	c #D6F1EF",
"f 	c #FFF96C",
"g 	c #FFF86E",
"h 	c #FFF86F",
"i 	c #FFF76F",
"j 	c #FFF363",
"k 	c #FFE94D",
"l 	c #FDC712",
"m 	c #B0AF85",
"n 	c #E5D390",
"o 	c #FFEDB5",
"p 	c #D5DBD4",
"q 	c #A1C3D8",
"r 	c #C0DFF1",
"s 	c #CCEAFA",
"t 	c #CCEBF9",
"u 	c #C3E4F2",
"v 	c #B6DCE9",
"w 	c #A6D1DE",
"x 	c #AAD1D1",
"y 	c #FEEF27",
"z 	c #FFF132",
"A 	c #FFF345",
"B 	c #FFF653",
"C 	c #FFF75D",
"D 	c #FFF455",
"E 	c #FFE843",
"F 	c #FCC50E",
"G 	c #E8D8A4",
"H 	c #FFF1C5",
"I 	c #F9E7AF",
"J 	c #91B4C9",
"K 	c #B7D8EE",
"L 	c #C5E6F9",
"M 	c #C1E3F5",
"N 	c #B5DAEA",
"O 	c #9DC5D5",
"P 	c #C5DAE1",
"Q 	c #E1DE6F",
"R 	c #FCEA2E",
"S 	c #FFF33B",
"T 	c #FFF648",
"U 	c #FFF242",
"V 	c #FFE32E",
"W 	c #EFB71A",
"X 	c #FDE7A8",
"Y 	c #FFEFBF",
"Z 	c #B8C6C6",
"` 	c #A5C8E1",
" .	c #BBDDF6",
"..	c #BCDFF6",
"+.	c #ACD2E7",
"@.	c #96BACB",
"#.	c #F9E427",
"$.	c #FFF12A",
"%.	c #FFF533",
"&.	c #FFEE2B",
"*.	c #FFD413",
"=.	c #E4C667",
"-.	c #FFF9E7",
";.	c #FFEBB0",
">.	c #90B0C8",
",.	c #ABCFEC",
"'.	c #B8DCF9",
").	c #ABD1EA",
"!.	c #8CB3C8",
"~.	c #FFE913",
"{.	c #FFF31C",
"].	c #FFF11E",
"^.	c #FFE314",
"/.	c #E8B82A",
"(.	c #FFEDB8",
"_.	c #EBDCA6",
":.	c #8CB0CE",
"<.	c #ACD3F3",
"[.	c #AED6F5",
"}.	c #97BFD9",
"|.	c #B4C9D4",
"1.	c #E4D646",
"2.	c #FFEF08",
"3.	c #FFF10A",
"4.	c #FFEB08",
"5.	c #FFC602",
"6.	c #F6DF98",
"7.	c #DBCF9B",
"8.	c #8FB3D4",
"9.	c #AAD1F5",
"0.	c #A7CFF1",
"a.	c #84AAC4",
"b.	c #E0DE9D",
"c.	c #FFEC00",
"d.	c #FFF100",
"e.	c #FFEE00",
"f.	c #FFD400",
"g.	c #EDD380",
"h.	c #CEC8A1",
"i.	c #92B6D8",
"j.	c #A9D0F6",
"k.	c #A3C9EC",
"l.	c #7A9FB8",
"m.	c #E9E7C2",
"n.	c #FFEB00",
"o.	c #FFEF00",
"p.	c #FFDC00",
"q.	c #E9CC6D",
"r.	c #E1C46D",
"s.	c #F0CA1E",
"t.	c #F4D51F",
"u.	c #F3D61E",
"v.	c #E8C720",
"w.	c #E1E7E4",
"x.	c #A9BD9F",
"y.	c #B8D2CE",
"z.	c #A6CAF1",
"A.	c #81A2C1",
"B.	c #E1D49F",
"C.	c #E6C978",
"D.	c #FFDA00",
"E.	c #DDD59F",
"F.	c #C0D0DC",
"G.	c #94B8DA",
"H.	c #AACFF6",
"I.	c #A2C6ED",
"J.	c #7C9BBB",
"K.	c #EBDBA3",
"L.	c #F9E09C",
"M.	c #FFD200",
"N.	c #FFE900",
"O.	c #FFED00",
"P.	c #FFE000",
"Q.	c #E2BE31",
"R.	c #8FACC4",
"S.	c #9EC2E7",
"T.	c #A9CDF6",
"U.	c #9ABCE3",
"V.	c #7895B2",
"W.	c #FBE8AD",
"X.	c #E9BA27",
"Y.	c #FFE300",
"Z.	c #FFE800",
"`.	c #FFCE00",
" +	c #DACA87",
".+	c #B3C3D0",
"++	c #90B2D5",
"@+	c #A4C7F1",
"#+	c #A6C8F4",
"$+	c #8EAFD5",
"%+	c #9EADB9",
"&+	c #DFC692",
"*+	c #FFE200",
"=+	c #FDC802",
"-+	c #D9C575",
";+	c #ADBDCB",
">+	c #88A9CC",
",+	c #9DBFE8",
"'+	c #A7CAF6",
")+	c #9CBDE7",
"!+	c #7A97BA",
"~+	c #E8DCB0",
"{+	c #FFFAEC",
"]+	c #E6B52C",
"^+	c #FFD300",
"/+	c #ECBF19",
"(+	c #D8C365",
"_+	c #D8CC86",
":+	c #C1CCD7",
"<+	c #ACBCCB",
"[+	c #7B96B2",
"}+	c #8CABD1",
"|+	c #A7C8F6",
"1+	c #A0C0ED",
"2+	c #8CA9D2",
"3+	c #99AABD",
"4+	c #FFE9A5",
"5+	c #EDE2C7",
"6+	c #E9BD2A",
"7+	c #FFDE00",
"8+	c #FFE400",
"9+	c #F9D308",
"0+	c #7F9DC0",
"a+	c #8AA9CF",
"b+	c #97B7E0",
"c+	c #A1C1EE",
"d+	c #A6C7F6",
"e+	c #A0BFED",
"f+	c #91AED9",
"g+	c #8197B4",
"h+	c #F6E5AE",
"i+	c #FFFAEA",
"j+	c #D9CC9D",
"k+	c #BCBDBB",
"l+	c #F4BE11",
"m+	c #FFDB00",
"n+	c #FCDB08",
"o+	c #A4C4F2",
"p+	c #A4C4F4",
"q+	c #A6C5F5",
"r+	c #9BB9E8",
"s+	c #8CA8D3",
"t+	c #8498B3",
"u+	c #C7C6B0",
"v+	c #D3D3C0",
"w+	c #F4EBD8",
"x+	c #E2B33A",
"y+	c #FFD000",
"z+	c #FCD808",
"A+	c #A3C1F3",
"B+	c #A1BFF0",
"C+	c #9AB7E6",
"D+	c #8EA9D6",
"E+	c #7D96BE",
"F+	c #A1AEC1",
"G+	c #F9ECC3",
"H+	c #FBEFCC",
"I+	c #FFEAAA",
"J+	c #E5D1A9",
"K+	c #DFB547",
"L+	c #F7C50D",
"M+	c #FAC907",
"N+	c #7D96BF",
"O+	c #7992BA",
"P+	c #8196B9",
"Q+	c #A8B5C9",
"R+	c #E8DFBD",
"S+	c #FFE9A8",
"T+	c #FFF5D7",
"U+	c #FFF4D2",
"V+	c #FFEBAD",
"W+	c #F9E7B2",
"X+	c #E4C982",
"Y+	c #DED0A0",
"Z+	c #FDEFC6",
"`+	c #FFF8E5",
"                                                ",
"                  . + @ # $ %                   ",
"              & * = - ; > , ' ) !               ",
"      ~ { ] ^ / ( _ : < [ } | 1 2 3 4 5 6       ",
"      7 8 9 0 a b c d e f g h i j k l m n       ",
"    o p q r s t u v w x y z A B C D E F G H     ",
"    I J K L M N O P         Q R S T U V W X     ",
"  Y Z `  ...+.@.                #.$.%.&.*.=.-.  ",
"  ;.>.,.'.).!.                    ~.{.].^./.(.  ",
"  _.:.<.[.}.|.                    1.2.3.4.5.6.  ",
"  7.8.9.0.a.                      b.c.d.e.f.g.  ",
"  h.i.j.k.l.                      m.n.d.o.p.q.  ",
"  r.s.t.u.v.                      w.x.y.z.A.B.  ",
"  C.p.c.c.D.E.                    F.G.H.I.J.K.  ",
"  L.M.N.O.P.Q.                    R.S.T.U.V.W.  ",
"  ;.X.Y.O.Z.`. +                .+++@+#+$+%+(.  ",
"  ;.&+f.N.O.*+=+-+            ;+>+,+'+)+!+~+    ",
"  {+(.]+p.c.O.Y.^+/+(+_+:+<+[+}+)+|+1+2+3+4+    ",
"    o 5+6+7+n.O.N.8+P.9+0+a+b+c+d+e+f+g+h+i+    ",
"      j+k+l+m+Z.c.c.c.n+o+p+q+p+r+s+t+u+v+      ",
"        4+w+x+y+P.Z.n.z+A+B+C+D+E+F+G+H+        ",
"          o I+J+K+L+f.M+N+O+P+Q+R+S+T+          ",
"              U+V+4+W+X+Y+Z+V+o `+              ",
"                                                "};
