/* XPM */
static char * info_xpm[] = {
"24 24 344 2",
"  	c None",
". 	c #EBF0F2",
"+ 	c #96B4C9",
"@ 	c #8DA2B3",
"# 	c #98B5C8",
"$ 	c #A1C4D7",
"% 	c #A9D0E2",
"& 	c #AED9EB",
"* 	c #B2E0F1",
"= 	c #B6E7F6",
"- 	c #B8ECFA",
"; 	c #BAF0FE",
"> 	c #BBEFFE",
", 	c #BBEEFE",
"' 	c #BAECFE",
") 	c #DAF3FE",
"! 	c #DBE2E8",
"~ 	c #9BBBD2",
"{ 	c #B5D5E6",
"] 	c #99B5CA",
"^ 	c #A2C4D8",
"/ 	c #A8CFE3",
"( 	c #ADD9EB",
"_ 	c #B2E1F1",
": 	c #B6E8F7",
"< 	c #BAEEFB",
"[ 	c #BCF3FE",
"} 	c #BDF4FE",
"| 	c #BDF3FE",
"1 	c #BCF1FE",
"2 	c #DAF4FE",
"3 	c #D2DBE4",
"4 	c #9EC0D6",
"5 	c #C0E0F1",
"6 	c #CDE5F0",
"7 	c #A1C3D9",
"8 	c #A8CEE3",
"9 	c #AED8EC",
"0 	c #B2E0F2",
"a 	c #B6E7F7",
"b 	c #BDF5FE",
"c 	c #BEF7FE",
"d 	c #BFF8FE",
"e 	c #DBF6FE",
"f 	c #C6D2DC",
"g 	c #A3C4DB",
"h 	c #C2E2F2",
"i 	c #D8EFFA",
"j 	c #E4F1F7",
"k 	c #A7CDE5",
"l 	c #ACD6EC",
"m 	c #B1DEF2",
"n 	c #B5E5F7",
"o 	c #B9EDFB",
"p 	c #BEF6FE",
"q 	c #BFFAFE",
"r 	c #C0FCFE",
"s 	c #99A9BA",
"t 	c #8193A6",
"u 	c #7F92A2",
"v 	c #7F8D99",
"w 	c #9BAFBE",
"x 	c #8FABBC",
"y 	c #91B0C1",
"z 	c #95B5C4",
"A 	c #97BAC7",
"B 	c #9ABEC9",
"C 	c #9BC1C9",
"D 	c #9CC4C9",
"E 	c #9DC6C9",
"F 	c #9DC8C9",
"G 	c #A3CFD2",
"H 	c #AEBED4",
"I 	c #98B1CF",
"J 	c #9BB7D6",
"K 	c #8BA6BE",
"L 	c #9CBCD5",
"M 	c #A1C3DB",
"N 	c #A4CAE0",
"O 	c #A7CFE3",
"P 	c #AAD5E5",
"Q 	c #ABD7E5",
"R 	c #ACDAE5",
"S 	c #BBE0BD",
"T 	c #E1E356",
"U 	c #F7DE16",
"V 	c #FFD700",
"W 	c #FCD20C",
"X 	c #EBD54B",
"Y 	c #E6E5AD",
"Z 	c #B6C7E1",
"` 	c #9FBADD",
" .	c #A4C3E6",
"..	c #9DBBD9",
"+.	c #A0C0DD",
"@.	c #A3C7E0",
"#.	c #A6CDE4",
"$.	c #A8D1E6",
"%.	c #AAD3E6",
"&.	c #ABD6E6",
"*.	c #D3E57A",
"=.	c #FFEC00",
"-.	c #FFE500",
";.	c #FFDF06",
">.	c #FFE65D",
",.	c #FFD51B",
"'.	c #FFC900",
").	c #FFC200",
"!.	c #FFD154",
"~.	c #BCCEE9",
"{.	c #A3C0E7",
"].	c #A8C8EE",
"^.	c #94B0CB",
"/.	c #95B2CB",
"(.	c #98B7CF",
"_.	c #9ABBD0",
":.	c #9BBDD0",
"<.	c #9CBFD0",
"[.	c #C5D57A",
"}.	c #FFEF00",
"|.	c #FFE900",
"1.	c #FFE300",
"2.	c #FFE95D",
"3.	c #FFFFFF",
"4.	c #CFCAB6",
"5.	c #F4C104",
"6.	c #FFC100",
"7.	c #FFBA00",
"8.	c #FFCA4E",
"9.	c #BFD2F0",
"0.	c #A6C4EF",
"a.	c #AACBF4",
"b.	c #97B3D1",
"c.	c #98B5D1",
"d.	c #9AB9D2",
"e.	c #9ABBD2",
"f.	c #9BBED2",
"g.	c #A7C4BC",
"h.	c #FAE90A",
"i.	c #FFE000",
"j.	c #FFDE1B",
"k.	c #CDC9BB",
"l.	c #7C7C7A",
"m.	c #E4B30C",
"n.	c #FFC000",
"o.	c #FFB900",
"p.	c #FFB200",
"q.	c #C2D5F5",
"r.	c #A8C7F5",
"s.	c #ABCDF9",
"t.	c #99B5D6",
"u.	c #99B6D4",
"v.	c #9AB9D4",
"w.	c #9BBBD4",
"x.	c #9CBDD4",
"y.	c #CBD070",
"z.	c #FFE400",
"A.	c #FFDF00",
"B.	c #FFDF1B",
"C.	c #FFDE33",
"D.	c #F5D237",
"E.	c #EAC22D",
"F.	c #FFC400",
"G.	c #FFBD00",
"H.	c #FFB700",
"I.	c #FFB000",
"J.	c #FFC148",
"K.	c #C5D6F9",
"L.	c #AAC8FA",
"M.	c #ACCEFD",
"N.	c #A5C4EB",
"O.	c #A5C6EA",
"P.	c #A6C9EA",
"Q.	c #A7CBEA",
"R.	c #A8CDEA",
"S.	c #E4D84A",
"T.	c #FFDD00",
"U.	c #FFDC00",
"V.	c #FFD900",
"W.	c #FFDF39",
"X.	c #F5F3E8",
"Y.	c #E0D9C2",
"Z.	c #E6B00B",
"`.	c #FFB400",
" +	c #FFAE00",
".+	c #FFAA09",
"++	c #C6D7FB",
"@+	c #AAC9FD",
"#+	c #ADCDFE",
"$+	c #A4C3ED",
"%+	c #A5C5EB",
"&+	c #A5C6EB",
"*+	c #A6C9EB",
"=+	c #A7CBEB",
"-+	c #EAD43A",
";+	c #FFD600",
">+	c #FFD500",
",+	c #FFD300",
"'+	c #FFD000",
")+	c #F0D879",
"!+	c #CACACA",
"~+	c #D5A212",
"{+	c #FFAA00",
"]+	c #FFA400",
"^+	c #C7D9FE",
"/+	c #AAC7FE",
"(+	c #ABCAFE",
"_+	c #92A9CC",
":+	c #91A9CA",
"<+	c #92ABCA",
"[+	c #93ADCA",
"}+	c #93AECA",
"|+	c #DAC445",
"1+	c #FFCF00",
"2+	c #FFCE00",
"3+	c #FFCC00",
"4+	c #FFDD69",
"5+	c #D59F12",
"6+	c #FFAD00",
"7+	c #FFA700",
"8+	c #FFA812",
"9+	c #C7D8FE",
"0+	c #A9C5FE",
"a+	c #AAC8FE",
"b+	c #9BB4DF",
"c+	c #9CB6DE",
"d+	c #9CB7DE",
"e+	c #9CB9DE",
"f+	c #9DBBDE",
"g+	c #C6C183",
"h+	c #FFC800",
"i+	c #FFC700",
"j+	c #FFC500",
"k+	c #FFC300",
"l+	c #FFDA69",
"m+	c #D59B12",
"n+	c #FFA900",
"o+	c #FFA300",
"p+	c #FFC05A",
"q+	c #C6D6FE",
"r+	c #A8C2FE",
"s+	c #9BB3E1",
"t+	c #9BB5E0",
"u+	c #9CB6E0",
"v+	c #9DB8E0",
"w+	c #9DBAE0",
"x+	c #A2BBD5",
"y+	c #F5C018",
"z+	c #FFBF00",
"A+	c #FFBC00",
"B+	c #FFE49C",
"C+	c #E4E4E4",
"D+	c #D59A1B",
"E+	c #FF9F00",
"F+	c #C5D4FE",
"G+	c #A7C0FE",
"H+	c #A2BBF1",
"I+	c #A3BCF0",
"J+	c #A4BEF0",
"K+	c #A4C0F0",
"L+	c #A4C3F0",
"M+	c #A5C4F0",
"N+	c #BDC2AF",
"O+	c #FEB903",
"P+	c #FFB800",
"Q+	c #FFCB48",
"R+	c #D9CBA9",
"S+	c #B7B7B7",
"T+	c #B1A58D",
"U+	c #EA9A09",
"V+	c #FFCA78",
"W+	c #C5D2FE",
"X+	c #A6BCFE",
"Y+	c #A7BFFE",
"Z+	c #A2B9F2",
"`+	c #A2BCF1",
" @	c #A3BEF1",
".@	c #A4C0F1",
"+@	c #A4C1F1",
"@@	c #A5C2F1",
"#@	c #BEBEAD",
"$@	c #F8B314",
"%@	c #FFAF00",
"&@	c #DD9B0E",
"*@	c #DB970F",
"=@	c #DB940F",
"-@	c #DB920F",
";@	c #F49B0A",
">@	c #FFCF87",
",@	c #C4D0FE",
"'@	c #A5BAFE",
")@	c #A5BCFE",
"!@	c #9BB0E8",
"~@	c #9BB1E6",
"{@	c #9CB2E6",
"]@	c #9DB4E6",
"^@	c #9DB5E6",
"/@	c #9DB6E6",
"(@	c #9DB7E6",
"_@	c #9EB7E6",
":@	c #A3B7DB",
"<@	c #C7B185",
"[@	c #E1AC46",
"}@	c #ECA82F",
"|@	c #EAAA3F",
"1@	c #D5B27E",
"2@	c #D8D8DD",
"3@	c #C3CEFE",
"4@	c #A3B6FE",
"5@	c #A4B9FE",
"6@	c #9BAFEA",
"7@	c #9BAFE9",
"8@	c #9CB1E9",
"9@	c #9CB2E9",
"0@	c #9DB3E9",
"a@	c #9DB4E9",
"b@	c #9EB6E9",
"c@	c #9EB7E9",
"d@	c #A0B9ED",
"e@	c #A9C4FE",
"f@	c #D1E0FE",
"g@	c #C2CDFE",
"h@	c #A2B3FE",
"i@	c #A3B5FE",
"j@	c #A4B7FE",
"k@	c #A5B9FE",
"l@	c #A5BBFE",
"m@	c #A6BEFE",
"n@	c #A8C1FE",
"o@	c #D0DEFE",
"p@	c #C2CBFE",
"q@	c #A1B0FE",
"r@	c #A2B2FE",
"s@	c #A2B4FE",
"t@	c #A6BDFE",
"u@	c #D0DCFE",
"v@	c #C1C9FE",
"w@	c #9FADFE",
"x@	c #A0AFFE",
"y@	c #A4B8FE",
"z@	c #CFD9FE",
"A@	c #ECEEFF",
"B@	c #ECEFFF",
"C@	c #ECF0FF",
"                                                ",
"          . + @ # $ % & * = - ; > , ' )         ",
"        ! ~ { ] ^ / ( _ : < [ } | 1 > 2         ",
"      3 4 5 6 7 8 9 0 a < b c d c b 1 e         ",
"    f g h i j k l m n o [ p q r q p | e         ",
"    s t u v w x y z A B C D E F G c | e         ",
"    H I J K L M N O P Q R S T U V W X Y         ",
"    Z `  ...+.@.#.$.%.&.*.=.-.;.>.,.'.).!.      ",
"    ~.{.].^./.(._.:.<.[.}.|.1.2.3.4.5.6.7.8.    ",
"    9.0.a.b.c.d.e.f.g.h.|.-.i.j.k.l.m.n.o.p.    ",
"    q.r.s.t.u.v.w.x.y.z.1.A.B.C.D.E.F.G.H.I.J.  ",
"    K.L.M.N.O.P.Q.R.S.T.U.V.W.X.3.Y.Z.7.`. +.+  ",
"    ++@+#+$+%+&+*+=+-+;+>+,+'+)+3.!+~+H.I.{+]+  ",
"    ^+/+(+_+:+<+[+}+|+1+2+3+'.4+3.!+5+p.6+7+8+  ",
"    9+0+a+b+c+d+e+f+g+h+i+j+k+l+3.!+m+ +n+o+p+  ",
"    q+r+0+s+t+u+v+w+x+y+n.z+A+B+3.C+D+n+]+E+    ",
"    F+G+r+H+I+J+K+L+M+N+O+P+Q+R+S+S+T+U+E+V+    ",
"    W+X+Y+Z+H+`+ @.@+@@@#@$@%@&@*@=@-@;@>@      ",
"    ,@'@)@!@~@{@]@^@/@(@_@:@<@[@}@|@1@2@        ",
"    3@4@5@6@7@8@9@0@a@b@b@c@c@c@d@0+e@f@        ",
"    g@h@i@j@k@l@X+m@Y+G+G+n@n@r+n@n@G+o@        ",
"    p@q@r@s@i@j@5@'@l@X+X+t@t@m@t@t@X+u@        ",
"    v@w@x@q@r@h@i@4@j@y@5@k@'@'@'@k@5@z@        ",
"      A@A@B@B@B@B@C@C@C@                        "};
