/* XPM */
static char *hegjwIwp[] = {
/* columns rows colors chars-per-pixel */
"24 24 165 2",
"   c #FFAF00",
".  c #FFB400",
"X  c #FFBB00",
"o  c #FEB416",
"O  c #FFBD16",
"+  c #FFBC1B",
"@  c #C39924",
"#  c #CA942B",
"$  c #C5A926",
"%  c #D0AD20",
"&  c #C5B026",
"*  c #CBB224",
"=  c #E2BA20",
"-  c #E1BA2F",
";  c #E8BD29",
":  c #FFC200",
">  c #FFCB00",
",  c #FFCB0C",
"<  c #F3D206",
"1  c #FFD300",
"2  c #FFDB00",
"3  c #FFD20C",
"4  c #FFC016",
"5  c #FEE200",
"6  c #FFCC2B",
"7  c #EDD22E",
"8  c #FFD720",
"9  c #FFD22B",
"0  c #FFD92B",
"q  c #FFC731",
"w  c #F3CA35",
"e  c #E6D631",
"r  c #BC9643",
"t  c #BA9C4F",
"y  c #BA9C5B",
"u  c #A4977B",
"i  c #A79B7E",
"p  c #B8B57B",
"a  c #C09950",
"s  c #D7A749",
"d  c #E1B541",
"f  c #E3BF47",
"g  c #EEBB48",
"h  c #E5B968",
"j  c #EEC048",
"k  c #FFCC44",
"l  c #EED24F",
"z  c #E7CC57",
"x  c #E8C857",
"c  c #FFC551",
"v  c #FFC951",
"b  c #ECD954",
"n  c #FFDF5F",
"m  c #FFE654",
"M  c #F4E65E",
"N  c #FFE05F",
"B  c #C7C466",
"V  c #CBC37A",
"C  c #CACE7C",
"Z  c #E9C270",
"A  c #E9CB70",
"S  c #E3C47A",
"D  c #EEC97E",
"F  c #E9D270",
"G  c #F4E466",
"H  c #F4E964",
"J  c #FCE16D",
"K  c #F3EB69",
"L  c #ABA083",
"P  c #B1A788",
"I  c #B6AD8D",
"U  c #BBB392",
"Y  c #B2ACAE",
"T  c #B4B1BE",
"R  c #C1B997",
"E  c #C5BF9C",
"W  c #BECB99",
"Q  c #BDD5AE",
"!  c #DEC182",
"~  c #C6D387",
"^  c #CDCE9A",
"/  c #C8DA91",
"(  c #E1C984",
")  c #FFD686",
"_  c #FFDD92",
"`  c #CAC4A1",
"'  c #D0CBA7",
"]  c #D5D1AC",
"[  c #E1DDA5",
"{  c #FFF2A2",
"}  c #EEE3BD",
"|  c #F1E5B7",
" . c #F4E9BC",
".. c #8C9FD7",
"X. c #8FA3D9",
"o. c #92ABDC",
"O. c #9CB6D5",
"+. c #9CBDD2",
"@. c #97B4DF",
"#. c #9BBBD9",
"$. c #A0BFDF",
"%. c #95ACE1",
"&. c #99B0E6",
"*. c #9CBBE3",
"=. c #9CB5EA",
"-. c #9DB8EB",
";. c #9DAEF6",
":. c #9EB3F4",
">. c #A3BCED",
",. c #B5BEE5",
"<. c #A2BCF0",
"1. c #A1B4FA",
"2. c #A4BAFC",
"3. c #ADC2CD",
"4. c #ADC7DA",
"5. c #A3CADF",
"6. c #B8CAD8",
"7. c #B5D2D3",
"8. c #BBDED7",
"9. c #B9D2DE",
"0. c #9FC6E0",
"q. c #A1C2E6",
"w. c #ACC6E5",
"e. c #A2C9E2",
"r. c #A3C4EB",
"t. c #ABC1E8",
"y. c #A5CAEB",
"u. c #BBC4EB",
"i. c #BECFE9",
"p. c #A9D0E2",
"a. c #A9D4EB",
"s. c #AEDCED",
"d. c #B0DEED",
"f. c #BAD9E9",
"g. c #A5C4F4",
"h. c #A7C9F1",
"j. c #A9CAF5",
"k. c #A6C1F8",
"l. c #A9C3FD",
"z. c #AACAFC",
"x. c #ABD1F2",
"c. c #B7E9F5",
"v. c #BCF3FB",
"b. c #BFF9FE",
"n. c #CCDDCD",
"m. c #CDD7DF",
"M. c #EDEAC5",
"N. c #EBEACA",
"B. c #F3E8C5",
"V. c #F7EFCE",
"C. c #F8ECCB",
"Z. c #F0E4D4",
"A. c #F4EAD2",
"S. c #C0DDE8",
"D. c #C3CBF4",
"F. c #C5CDFC",
"G. c #C6D5F9",
"H. c #C6E7EF",
"J. c #CCE2ED",
"K. c #CAECF4",
"L. c #E1E5EA",
"P. c #E6E9EF",
"I. c #E4E6F1",
"U. c #E8EAF3",
"Y. c None",
/* pixels */
"Y.Y.Y.Y.Y.Y.Y.Y.Y.Y.Y.Y.Y.Y.Y.Y.Y.Y.Y.Y.Y.Y.Y.Y.",
"Y.Y.Y.Y.Y.Y.Y.Y.Y.Y.Y.Y.Y.C.Y.{ 0 0 9 9 9 q k Y.",
"Y.Y.Y.Y.Y.Y.Y.Y.Y.Y.Y. .x ; Y.Y.m 2 2 1 1 1 + Y.",
"Y.Y.Y.Y.Y.Y.Y.Y.Y. .z $ % w Y.Y.Y.8 2 1 > > O Y.",
"Y.Y.Y.Y.Y.Y.Y.Y.( $ * z | } Y.Y.n 1 1 > > > O Y.",
"Y.Y.Y.Y.Y.Y.Y.B.7 b  .L.m.Y.Y.N 1 1 1 > > : o Y.",
"Y.Y.Y.Y.Y.V.G M M.P.i.O.f.6.J 1 1 1 > > X X o Y.",
"Y.Y.Y.V.H H M.U.G.j.r.5.J.f.^ 3 1 > > 4 Y.v o Y.",
"Y.A.G K N.U.f.l.z.j.#.#.+.+.3.Y., > + Y.Y.Y.) Y.",
"Y.F [ I.F.2.2.k.*.q.#.5.5.e.9.Y.Y.q Y.Y.Y.Y.A.Y.",
"Y.F ] F.;.:.:.o.#.y.0.a.d.d.S.Y.Y.Y.Y.Y.A.S D Y.",
"Y.A ' F.;.X.=.@.*.x.a.8.Q c.H.Y.Y.Y.A.S g c Y.Y.",
"Y.F ` D.;.o.-.=.0.7.B e ~ b.K.Y.A.S g   c Y.Y.Y.",
"Y.A ^ D.;.o.-.0.0.W 5 5 / K.n.S j . . c Y.Y.Y.Y.",
"Y.A U u.:.&.k.0.j.W 5 5 C V j X . . v Y.Y.Y.Y.Y.",
"Y.D U u.:.&.k.r.x.W < = - : X X . v Y.Y.Y.Y.Y.Y.",
"Y.A I u.2.=.g.y.x.p @ : : X X . v Y.Y.Y.Y.Y.Y.Y.",
"Y.Z P u.2.=.g.j.4.t X X X . + _ Y.Y.Y.Y.Y.Y.Y.Y.",
"Y.Z L ,.2.<.z.w.y X X X + _ Y.Y.Y.Y.Y.Y.Y.Y.Y.Y.",
"Y.Z i u.2.l.t.y X X + _ Y.Y.Y.Y.Y.Y.Y.Y.Y.Y.Y.Y.",
"Y.h u ,.2.<.a . + _ Y.Y.Y.Y.Y.Y.Y.Y.Y.Y.Y.Y.Y.Y.",
"Y.h r T Y # o _ Y.Y.Y.Y.Y.Y.Y.Y.Y.Y.Y.Y.Y.Y.Y.Y.",
"Y.Z.! d s _ Y.Y.Y.Y.Y.Y.Y.Y.Y.Y.Y.Y.Y.Y.Y.Y.Y.Y.",
"Y.Y.Y.Y.Y.Y.Y.Y.Y.Y.Y.Y.Y.Y.Y.Y.Y.Y.Y.Y.Y.Y.Y.Y."
};
