/* XPM */
static char *ChqBKvMf[] = {
/* columns rows colors chars-per-pixel */
"24 24 191 2",
"   c #FEA51C",
".  c #E49A31",
"X  c #DAAB38",
"o  c #FDAB23",
"O  c #F5AD2F",
"+  c #FFB026",
"@  c #FFB428",
"#  c #F4A836",
"$  c #FFBC34",
"%  c #FFB43E",
"&  c #FEC12B",
"*  c #FFC335",
"=  c #FBC834",
"-  c #FDC73B",
";  c #FFCC3C",
":  c #B79E64",
">  c #A69976",
",  c #A6A67D",
"<  c #AAA47F",
"1  c #BCA670",
"2  c #C39F57",
"3  c #D8A945",
"4  c #C2A055",
"5  c #C6B754",
"6  c #D9AD6B",
"7  c #C8B96C",
"8  c #DDC44D",
"9  c #DBC15B",
"0  c #E9C843",
"q  c #EDCA4E",
"w  c #F2CC43",
"e  c #FED442",
"r  c #FED944",
"t  c #F2D048",
"y  c #F8D148",
"u  c #FFDC4A",
"i  c #EEC851",
"p  c #FFCD57",
"a  c #FCD553",
"s  c #FFDE50",
"d  c #FFE14D",
"f  c #FFE651",
"g  c #FFEA55",
"h  c #FFE35A",
"j  c #FFED58",
"k  c #E7CA70",
"l  c #FFE362",
"z  c #FFEB60",
"x  c #FFEC69",
"c  c #FFF066",
"v  c #F1E276",
"b  c #FFEC7E",
"n  c #FFF373",
"m  c #FFF179",
"M  c #6F8FA6",
"N  c #6F93A1",
"B  c #6893AC",
"V  c #6B96B1",
"C  c #759BB3",
"Z  c #729CBB",
"A  c #9CA88B",
"S  c #A8A680",
"D  c #AAAC84",
"F  c #BCAD86",
"G  c #A2AE9A",
"H  c #8C9BA6",
"J  c #88A2AA",
"K  c #9CABA8",
"L  c #85A2B0",
"P  c #A3AFAE",
"I  c #C5B486",
"U  c #B0C4A5",
"Y  c #A5C5B9",
"T  c #B9C1BE",
"R  c #C5C281",
"E  c #CEC799",
"W  c #DFC894",
"Q  c #FFD48F",
"!  c #FFEB80",
"~  c #FFF58B",
"^  c #FFE994",
"/  c #FFF295",
"(  c #C0CAA7",
")  c #C7C8AE",
"_  c #D4CCB4",
"`  c #C9D4B7",
"'  c #C4D4B8",
"]  c #CAD9BA",
"[  c #D4D6B7",
"{  c #DBD2B6",
"}  c #D2DBBD",
"|  c #FFDAA7",
" . c #F1E2AE",
".. c #FFF3A3",
"X. c #FFE7BD",
"o. c #FFF5B2",
"O. c #FFF8B9",
"+. c #92ACC5",
"@. c #90B0C1",
"#. c #80B7D5",
"$. c #AFBCC0",
"%. c #AABED4",
"&. c #8BBEE2",
"*. c #94BFE3",
"=. c #A0B6EE",
"-. c #A4BDEC",
";. c #93C6D8",
":. c #A0C3D7",
">. c #AFC2DD",
",. c #B1C9DA",
"<. c #B9D3D8",
"1. c #8BC2E4",
"2. c #8BCCE9",
"3. c #90C2E4",
"4. c #9DC4E6",
"5. c #9BC6E8",
"6. c #92CBE8",
"7. c #9ACBE9",
"8. c #8ED0E6",
"9. c #8BD2EC",
"0. c #94D7ED",
"q. c #99D4EC",
"w. c #A8C3EB",
"e. c #ADC8EA",
"r. c #B4C8E6",
"t. c #B1C6E9",
"y. c #B5CAE9",
"u. c #B8CDEB",
"i. c #ABD1EB",
"p. c #B7DAE4",
"a. c #B6D0E8",
"s. c #BBD0EC",
"d. c #B2C6FE",
"f. c #B5CBFE",
"g. c #B9CEFE",
"h. c #B6D8F3",
"j. c #B8DCF3",
"k. c #BCD5FE",
"l. c #B5D9FC",
"z. c #BADCFD",
"x. c #B8E1FA",
"c. c #CBDEC1",
"v. c #C6CED3",
"b. c #E8DCC7",
"n. c #CCE1C6",
"m. c #FFF3C5",
"M. c #FFF0CB",
"N. c #FFFAD4",
"B. c #FFF9D9",
"V. c #C1D9E1",
"C. c #C5D7ED",
"Z. c #C5DDEF",
"A. c #CEDBE8",
"S. c #D0DBE1",
"D. c #C0D5F0",
"F. c #C5DAF3",
"G. c #CADFF6",
"H. c #C1D4FE",
"J. c #C4DDFD",
"K. c #CBDCFE",
"L. c #D2DCFC",
"P. c #C6E2E4",
"I. c #CAE7E4",
"U. c #C2E3E8",
"Y. c #CBE9E8",
"T. c #D1EAE4",
"R. c #D9EAE1",
"E. c #D3EDE8",
"W. c #DBF1E8",
"Q. c #C6E3F2",
"!. c #CBE3F4",
"~. c #C7EAF6",
"^. c #C5E2FF",
"/. c #CCE4FD",
"(. c #D3E1F4",
"). c #DAE8F7",
"_. c #D3E2FD",
"`. c #DBE3FF",
"'. c #D4E9FD",
"]. c #DBECFD",
"[. c #D3F2FE",
"{. c #DCF0FF",
"}. c #FFFBED",
"|. c #E3EFFF",
" X c #E3F4FE",
".X c #EAF5FF",
"XX c #ECF9FE",
"oX c #FFFDF3",
"OX c #F0F5F9",
"+X c #F3FAFE",
"@X c #FEFEFE",
/* pixels */
"@X@X@X@X@X@X@X@X@X@X@X@X@X@X@X@X@X@X@X@X@X@X@X@X",
"@X@X@X@X@XoXb g g h m.@X@X@X@X@X@X@X@X@X@X@X@X@X",
"@X@X@X@X@Xx m n g f r M.@X@X@X@X@X@X@X@X@X@X@X@X",
"@X@X@X@Xm.x O.O.j f r p @X@X@XB.@X@X@X@X@X@X@X@X",
"@X@X@X@X^ l ....h u e $ @X..j j f l }.@X@X@X@X@X",
"@X@X@X@X .r h h r e * % o.x ~ x g d a @X@X@X@X@X",
"@X@X.XK.l.w ; ; ; $ o | h / N./ g u ; X.@X@X@X@X",
"@X+X^.z.l.T O o     6 OXs b o.b d r * Q @X@X@X@X",
"@X'././.^.$.> : 4 , G ;.a u h u e ; @ b.@X@X@X@X",
"@Xy.s.G.'.{ [ ` ' ] c.U.E * ; ; * + # z.J. X@X@X",
"@Xy.t.r.q 1 R.R.E.I.<.J @.I o o   . H +.z./.+X@X",
"@Xu.s.y.& 3 u.~.[.V.L i.x.U D D < < P :.Z.~._.@X",
"@Xs.s.u.r 7 r.r.s.,.{.!.I.c.n.c.c.} ) !.h.5.5.@X",
"@XD.D.v.d 9 y.r.y.a.{. X+X XY.E.W.K 2 v &.&.7.@X",
"@XF.F._ r q r.a.C.a.[. XXX+XXX[.j.M X = 1.7.7.@X",
"@X!.G.W r y >.y.y.y./.{. XXXXX5.&.Z 5 r 1.1.7.@X",
"@XA.(.S.r w >.u.y.e./.'. X.XXX3.3.C 8 d ;.2.q.@X",
"@X@X+X].k F C.a.y.w.J./.]. X+Xe.&.V t ; Y 8.0.@X",
"@X@X@X@X+X).s.s.y.-.k.K.'.]..X3.1.B e r U 9.q.@X",
"@X@X@X@X@X@X+X(.y.=.f.H.K.'.|.1.&.N 0 e 9.0.<.@X",
"@X@X@X@X@X@X@X@XOXL.d.g.K.L.].&.1.#.A R ~.+X@X@X",
"@X@X@X@X@X@X@X@X@X@X+X`.k.K._.&.1.6.!.+X@X@X@X@X",
"@X@X@X@X@X@X@X@X@X@X@X@X@XL.K.3.Q.+X@X@X@X@X@X@X",
"@X@X@X@X@X@X@X@X@X@X@X@X@X@X@X+X@X@X@X@X@X@X@X@X"
};
